<svg xmlns="http://www.w3.org/2000/svg" width="246" height="70" viewBox="0 0 246 70" fill="none">
    <path d="M26.7695 10.9062L23.043 32H17.418L19.2812 21.4531L11.793 32L8.03125 21.4531L6.16797 32H0.542969L4.26953 10.9062H9.89453L13.6562 21.4531L21.1445 10.9062H26.7695ZM43.281 10.9062L45.7244 13.0156L42.7537 29.8906L39.572 32H28.322L25.8787 29.8906L28.8494 13.0156L32.031 10.9062H43.281ZM31.8728 27.7812H37.4978L39.7302 15.125H34.1052L31.8728 27.7812ZM63.2905 10.9062L62.5523 15.125H56.9273L53.9566 32H48.3316L51.3023 15.125H45.6773L46.4155 10.9062H63.2905ZM78.6243 10.9062L81.0677 13.0156L78.097 29.8906L74.9153 32H63.6653L61.222 29.8906L64.1927 13.0156L67.3743 10.9062H78.6243ZM67.2161 27.7812H72.8411L75.0735 15.125H69.4485L67.2161 27.7812ZM176.234 27.7812L175.496 32H169.871L170.609 27.7812H176.234ZM194.064 10.9062L196.49 13.0156L195.013 21.4531L191.832 23.5625H183.394L181.9 32H176.275L177.769 23.5625L178.507 19.3438L179.246 15.125L180.002 10.9062H194.064ZM184.132 19.3438H189.757L190.496 15.125H184.871L184.132 19.3438ZM215.058 10.9062L213.564 19.3438L212.826 23.5625L211.701 29.8906L208.519 32H194.456L195.195 27.7812L195.564 25.6719H201.189L200.82 27.7812H206.445L207.201 23.5625H198.763L196.32 21.4531L198.183 10.9062H203.808L202.314 19.3438H207.939L209.433 10.9062H215.058Z" fill="#FF0007"/>
    <path d="M100.058 10.9062L99.3018 15.125L98.9327 17.2344H93.3077L93.6768 15.125H88.0518L87.3135 19.3438H95.751L98.1944 21.4531L96.7002 29.8906L93.5186 32H79.4561L80.1944 27.7812L80.9502 23.5625L81.6885 19.3438L82.4268 15.125L83.1827 10.9062H100.058ZM85.8194 27.7812H91.4444L92.2002 23.5625H86.5752L85.8194 27.7812ZM116.235 10.9062L118.661 13.0156L117.184 21.4531L114.003 23.5625H105.565L104.071 32H98.4461L99.9402 23.5625L100.679 19.3438L101.417 15.125L102.173 10.9062H116.235ZM106.304 19.3438H111.929L112.667 15.125H107.042L106.304 19.3438ZM132.799 10.9062L134.698 32H129.073L128.686 27.7812H122.499L120.635 32H115.01L124.362 10.9062H132.799ZM124.379 23.5625H128.317L127.649 16.1797L124.379 23.5625ZM155.551 10.9062L151.825 32H146.2L148.063 21.4531L140.575 32H134.95L138.676 10.9062H144.301L142.438 21.4531L149.926 10.9062H155.551ZM152.44 4.57812L151.701 8.79688H143.264L144.002 4.57812H152.44ZM173.117 10.9062L172.379 15.125H166.754L163.783 32H158.158L161.129 15.125H155.504L156.242 10.9062H173.117Z" fill="#333333"/>
    <path d="M10.618 41.62V51H9.89V43.496L6.642 48.116H6.362L3.1 43.496V51H2.372V41.62H2.652L6.502 47.108L10.338 41.62H10.618ZM16.1938 51.14C15.5592 51.14 14.9712 50.986 14.4298 50.678C13.8978 50.3607 13.4778 49.9313 13.1698 49.39C12.8618 48.8487 12.7078 48.256 12.7078 47.612C12.7078 46.9587 12.8618 46.366 13.1698 45.834C13.4778 45.2927 13.8978 44.868 14.4298 44.56C14.9712 44.252 15.5638 44.098 16.2078 44.098C16.8518 44.098 17.4398 44.2567 17.9718 44.574C18.5038 44.882 18.9238 45.3067 19.2318 45.848C19.5492 46.38 19.7078 46.968 19.7078 47.612C19.7078 48.256 19.5492 48.8487 19.2318 49.39C18.9238 49.9313 18.4992 50.3607 17.9578 50.678C17.4258 50.986 16.8378 51.14 16.1938 51.14ZM16.1938 50.482C16.7072 50.482 17.1738 50.356 17.5938 50.104C18.0232 49.852 18.3592 49.5113 18.6018 49.082C18.8538 48.6433 18.9798 48.158 18.9798 47.626C18.9798 47.0847 18.8538 46.5993 18.6018 46.17C18.3592 45.7313 18.0278 45.386 17.6078 45.134C17.1878 44.882 16.7212 44.756 16.2078 44.756C15.6852 44.756 15.2138 44.882 14.7938 45.134C14.3738 45.386 14.0425 45.7313 13.7998 46.17C13.5572 46.5993 13.4358 47.0847 13.4358 47.626C13.4358 48.158 13.5572 48.6433 13.7998 49.082C14.0425 49.5113 14.3738 49.852 14.7938 50.104C15.2138 50.356 15.6805 50.482 16.1938 50.482ZM23.2421 44.882H20.7641V44.238H26.4061V44.882H23.9421V51H23.2421V44.882ZM30.9868 51.14C30.3521 51.14 29.7641 50.986 29.2228 50.678C28.6908 50.3607 28.2708 49.9313 27.9628 49.39C27.6548 48.8487 27.5008 48.256 27.5008 47.612C27.5008 46.9587 27.6548 46.366 27.9628 45.834C28.2708 45.2927 28.6908 44.868 29.2228 44.56C29.7641 44.252 30.3568 44.098 31.0008 44.098C31.6448 44.098 32.2328 44.2567 32.7648 44.574C33.2968 44.882 33.7168 45.3067 34.0248 45.848C34.3421 46.38 34.5008 46.968 34.5008 47.612C34.5008 48.256 34.3421 48.8487 34.0248 49.39C33.7168 49.9313 33.2921 50.3607 32.7508 50.678C32.2188 50.986 31.6308 51.14 30.9868 51.14ZM30.9868 50.482C31.5001 50.482 31.9668 50.356 32.3868 50.104C32.8161 49.852 33.1521 49.5113 33.3948 49.082C33.6468 48.6433 33.7728 48.158 33.7728 47.626C33.7728 47.0847 33.6468 46.5993 33.3948 46.17C33.1521 45.7313 32.8208 45.386 32.4008 45.134C31.9808 44.882 31.5141 44.756 31.0008 44.756C30.4781 44.756 30.0068 44.882 29.5868 45.134C29.1668 45.386 28.8355 45.7313 28.5928 46.17C28.3501 46.5993 28.2288 47.0847 28.2288 47.626C28.2288 48.158 28.3501 48.6433 28.5928 49.082C28.8355 49.5113 29.1668 49.852 29.5868 50.104C30.0068 50.356 30.4735 50.482 30.9868 50.482ZM39.7131 44.196C40.3291 44.196 40.8984 44.35 41.4211 44.658C41.9531 44.966 42.3731 45.386 42.6811 45.918C42.9891 46.45 43.1431 47.0333 43.1431 47.668C43.1431 48.3027 42.9844 48.886 42.6671 49.418C42.3591 49.95 41.9344 50.37 41.3931 50.678C40.8611 50.986 40.2731 51.14 39.6291 51.14C38.9664 51.14 38.3737 50.986 37.8511 50.678C37.3284 50.3607 36.9177 49.922 36.6191 49.362C36.3204 48.802 36.1711 48.158 36.1711 47.43V45.988C36.1711 44.98 36.2877 44.1493 36.5211 43.496C36.7544 42.8333 37.1557 42.2967 37.7251 41.886C38.3037 41.466 39.1064 41.1673 40.1331 40.99C40.7491 40.878 41.2437 40.78 41.6171 40.696C41.9997 40.6027 42.3077 40.4953 42.5411 40.374V41.06C42.2891 41.1907 41.9811 41.298 41.6171 41.382C41.2531 41.466 40.7911 41.5547 40.2311 41.648C39.2884 41.7973 38.5697 42.0493 38.0751 42.404C37.5897 42.7587 37.2631 43.2067 37.0951 43.748C36.9271 44.28 36.8431 44.966 36.8431 45.806V45.946C37.1324 45.4047 37.5291 44.98 38.0331 44.672C38.5371 44.3547 39.0971 44.196 39.7131 44.196ZM39.6431 50.482C40.1564 50.482 40.6231 50.356 41.0431 50.104C41.4724 49.852 41.8084 49.5113 42.0511 49.082C42.2937 48.6527 42.4151 48.1813 42.4151 47.668C42.4151 47.1547 42.2937 46.6833 42.0511 46.254C41.8084 45.8247 41.4724 45.484 41.0431 45.232C40.6231 44.98 40.1564 44.854 39.6431 44.854C39.1391 44.854 38.6771 44.98 38.2571 45.232C37.8371 45.4747 37.5057 45.8107 37.2631 46.24C37.0204 46.6693 36.8991 47.1453 36.8991 47.668C36.8991 48.1907 37.0204 48.6667 37.2631 49.096C37.5057 49.5253 37.8371 49.866 38.2571 50.118C38.6771 50.3607 39.1391 50.482 39.6431 50.482ZM50.1177 44.238V51H49.4037V44.882H46.5337L46.4917 45.904C46.4357 47.2013 46.3377 48.214 46.1977 48.942C46.067 49.67 45.8617 50.202 45.5817 50.538C45.3017 50.874 44.919 51.042 44.4337 51.042C44.359 51.042 44.2657 51.028 44.1537 51V50.384C44.2097 50.3933 44.2937 50.398 44.4057 50.398C44.7417 50.398 45.003 50.23 45.1897 49.894C45.3857 49.5487 45.5304 49.0587 45.6237 48.424C45.717 47.78 45.7824 46.9307 45.8197 45.876L45.8757 44.238H50.1177ZM55.6919 51.14C55.0572 51.14 54.4692 50.986 53.9279 50.678C53.3959 50.3607 52.9759 49.9313 52.6679 49.39C52.3599 48.8487 52.2059 48.256 52.2059 47.612C52.2059 46.9587 52.3599 46.366 52.6679 45.834C52.9759 45.2927 53.3959 44.868 53.9279 44.56C54.4692 44.252 55.0619 44.098 55.7059 44.098C56.3499 44.098 56.9379 44.2567 57.4699 44.574C58.0019 44.882 58.4219 45.3067 58.7299 45.848C59.0472 46.38 59.2059 46.968 59.2059 47.612C59.2059 48.256 59.0472 48.8487 58.7299 49.39C58.4219 49.9313 57.9972 50.3607 57.4559 50.678C56.9239 50.986 56.3359 51.14 55.6919 51.14ZM55.6919 50.482C56.2052 50.482 56.6719 50.356 57.0919 50.104C57.5212 49.852 57.8572 49.5113 58.0999 49.082C58.3519 48.6433 58.4779 48.158 58.4779 47.626C58.4779 47.0847 58.3519 46.5993 58.0999 46.17C57.8572 45.7313 57.5259 45.386 57.1059 45.134C56.6859 44.882 56.2192 44.756 55.7059 44.756C55.1832 44.756 54.7119 44.882 54.2919 45.134C53.8719 45.386 53.5405 45.7313 53.2979 46.17C53.0552 46.5993 52.9339 47.0847 52.9339 47.626C52.9339 48.158 53.0552 48.6433 53.2979 49.082C53.5405 49.5113 53.8719 49.852 54.2919 50.104C54.7119 50.356 55.1785 50.482 55.6919 50.482ZM61.2961 44.238H61.9961V51H61.2961V44.238ZM66.5181 51H65.6081L62.2061 47.332L65.2721 44.238H66.1961L63.1301 47.318L66.5181 51ZM73.4791 44.098V51H72.7651V45.54L68.4671 51.14H68.1731V44.238H68.8731V49.726L73.1851 44.098H73.4791ZM85.3053 44.098V51H84.5913V45.54L80.2933 51.14H79.9993V44.238H80.6993V49.726L85.0113 44.098H85.3053ZM94.9194 47.388C95.3394 47.528 95.6661 47.752 95.8994 48.06C96.1328 48.368 96.2494 48.7133 96.2494 49.096C96.2494 49.7027 96.0254 50.1973 95.5774 50.58C95.1294 50.9533 94.5274 51.14 93.7714 51.14C92.6701 51.14 91.8254 50.6967 91.2374 49.81L91.7414 49.39C91.9654 49.726 92.2361 49.992 92.5534 50.188C92.8801 50.384 93.2861 50.482 93.7714 50.482C94.3314 50.482 94.7608 50.3513 95.0594 50.09C95.3581 49.8287 95.5074 49.488 95.5074 49.068C95.5074 48.6667 95.3581 48.3447 95.0594 48.102C94.7701 47.8593 94.3361 47.738 93.7574 47.738H92.8614V47.094H93.7714C94.2474 47.094 94.6021 46.9867 94.8354 46.772C95.0688 46.548 95.1854 46.2587 95.1854 45.904C95.1854 45.5493 95.0594 45.2693 94.8074 45.064C94.5554 44.8587 94.2054 44.756 93.7574 44.756C93.3468 44.756 93.0014 44.8353 92.7214 44.994C92.4414 45.1433 92.1848 45.3627 91.9514 45.652L91.4754 45.232C92.0168 44.476 92.7821 44.098 93.7714 44.098C94.4248 44.098 94.9428 44.2567 95.3254 44.574C95.7081 44.8913 95.8994 45.3207 95.8994 45.862C95.8994 46.198 95.8154 46.5013 95.6474 46.772C95.4794 47.0427 95.2368 47.248 94.9194 47.388ZM100.601 44.098C101.367 44.098 101.978 44.3267 102.435 44.784C102.902 45.2413 103.135 45.8993 103.135 46.758V51H102.463V49.936C102.221 50.3187 101.889 50.6173 101.469 50.832C101.049 51.0373 100.573 51.14 100.041 51.14C99.3879 51.14 98.8373 50.9813 98.3893 50.664C97.9413 50.3373 97.7173 49.8847 97.7173 49.306C97.7173 48.7553 97.9319 48.3167 98.3613 47.99C98.7906 47.6633 99.3599 47.5 100.069 47.5H102.421V46.73C102.421 46.086 102.253 45.596 101.917 45.26C101.581 44.924 101.129 44.756 100.559 44.756C100.13 44.756 99.7519 44.854 99.4253 45.05C99.0986 45.2367 98.7906 45.5167 98.5013 45.89L98.0113 45.498C98.6646 44.5647 99.5279 44.098 100.601 44.098ZM100.111 50.524C100.522 50.524 100.905 50.4353 101.259 50.258C101.614 50.0807 101.894 49.838 102.099 49.53C102.314 49.2127 102.421 48.8627 102.421 48.48V48.102H100.139C99.5886 48.102 99.1686 48.2047 98.8792 48.41C98.5899 48.606 98.4453 48.8907 98.4453 49.264C98.4453 49.6747 98.6086 49.9873 98.9353 50.202C99.2619 50.4167 99.6539 50.524 100.111 50.524ZM105.634 44.238H110.702V51H109.988V44.882H106.334V51H105.634V44.238ZM117.854 44.238V51H117.154V48.032C116.93 48.144 116.66 48.2327 116.342 48.298C116.025 48.354 115.698 48.382 115.362 48.382C114.569 48.382 113.939 48.1673 113.472 47.738C113.006 47.2993 112.772 46.6553 112.772 45.806V44.238H113.472V45.778C113.472 47.0847 114.13 47.738 115.446 47.738C115.745 47.738 116.048 47.71 116.356 47.654C116.674 47.598 116.94 47.514 117.154 47.402V44.238H117.854ZM122.722 44.098C123.488 44.098 124.099 44.3267 124.556 44.784C125.023 45.2413 125.256 45.8993 125.256 46.758V51H124.584V49.936C124.342 50.3187 124.01 50.6173 123.59 50.832C123.17 51.0373 122.694 51.14 122.162 51.14C121.509 51.14 120.958 50.9813 120.51 50.664C120.062 50.3373 119.838 49.8847 119.838 49.306C119.838 48.7553 120.053 48.3167 120.482 47.99C120.912 47.6633 121.481 47.5 122.19 47.5H124.542V46.73C124.542 46.086 124.374 45.596 124.038 45.26C123.702 44.924 123.25 44.756 122.68 44.756C122.251 44.756 121.873 44.854 121.546 45.05C121.22 45.2367 120.912 45.5167 120.622 45.89L120.132 45.498C120.786 44.5647 121.649 44.098 122.722 44.098ZM122.232 50.524C122.643 50.524 123.026 50.4353 123.38 50.258C123.735 50.0807 124.015 49.838 124.22 49.53C124.435 49.2127 124.542 48.8627 124.542 48.48V48.102H122.26C121.71 48.102 121.29 48.2047 121 48.41C120.711 48.606 120.566 48.8907 120.566 49.264C120.566 49.6747 120.73 49.9873 121.056 50.202C121.383 50.4167 121.775 50.524 122.232 50.524ZM130.723 51.14C130.088 51.14 129.5 50.986 128.959 50.678C128.427 50.3607 128.007 49.9313 127.699 49.39C127.391 48.8487 127.237 48.256 127.237 47.612C127.237 46.968 127.391 46.38 127.699 45.848C128.007 45.3067 128.427 44.882 128.959 44.574C129.5 44.2567 130.093 44.098 130.737 44.098C131.306 44.098 131.824 44.224 132.291 44.476C132.758 44.7187 133.15 45.0547 133.467 45.484L132.963 45.89C132.384 45.134 131.642 44.756 130.737 44.756C130.214 44.756 129.743 44.882 129.323 45.134C128.903 45.386 128.572 45.7313 128.329 46.17C128.086 46.6087 127.965 47.0893 127.965 47.612C127.965 48.144 128.086 48.6293 128.329 49.068C128.572 49.5067 128.903 49.852 129.323 50.104C129.743 50.356 130.21 50.482 130.723 50.482C131.628 50.482 132.375 50.104 132.963 49.348L133.467 49.754C133.15 50.1833 132.753 50.524 132.277 50.776C131.81 51.0187 131.292 51.14 130.723 51.14ZM137.006 44.882H134.528V44.238H140.17V44.882H137.706V51H137.006V44.882ZM147.129 44.098V51H146.415V45.54L142.117 51.14H141.823V44.238H142.523V49.726L146.835 44.098H147.129Z" fill="black"/>
</svg>
