<svg xmlns="http://www.w3.org/2000/svg" width="299" height="85" viewBox="0 0 299 85" fill="none">
    <path d="M32.2916 13.3862L27.7665 39H20.9361L23.1987 26.1931L14.1057 39L9.53795 26.1931L7.27539 39H0.445033L4.97015 13.3862H11.8005L16.3683 26.1931L25.4612 13.3862H32.2916ZM52.3412 13.3862L55.3082 15.9475L51.7009 36.4386L47.8375 39H34.1768L31.2098 36.4386L34.8171 15.9475L38.6805 13.3862H52.3412ZM38.4884 33.8772H45.3188L48.0296 18.5089H41.1992L38.4884 33.8772ZM76.6385 13.3862L75.742 18.5089H68.9117L65.3044 39H58.474L62.0813 18.5089H55.251L56.1475 13.3862H76.6385ZM95.2581 13.3862L98.225 15.9475L94.6177 36.4386L90.7543 39H77.0936L74.1267 36.4386L77.7339 15.9475L81.5974 13.3862H95.2581ZM81.4053 33.8772H88.2356L90.9464 18.5089H84.1161L81.4053 33.8772ZM213.784 33.8772L212.888 39H206.058L206.954 33.8772H213.784ZM235.435 13.3862L238.381 15.9475L236.588 26.1931L232.724 28.7545H222.479L220.664 39H213.834L215.648 28.7545L216.545 23.6317L217.441 18.5089L218.359 13.3862H235.435ZM223.375 23.6317H230.205L231.102 18.5089H224.272L223.375 23.6317ZM260.928 13.3862L259.113 23.6317L258.217 28.7545L256.851 36.4386L252.987 39H235.911L236.808 33.8772L237.256 31.3158H244.086L243.638 33.8772H250.469L251.386 28.7545H241.141L238.174 26.1931L240.436 13.3862H247.267L245.453 23.6317H252.283L254.097 13.3862H260.928Z" fill="#FF0007"/>
    <path d="M121.284 13.3862L120.366 18.5089L119.918 21.0703H113.088L113.536 18.5089H106.706L105.809 23.6317H116.055L119.022 26.1931L117.207 36.4386L113.344 39H96.2681L97.1646 33.8772L98.0824 28.7545L98.9789 23.6317L99.8754 18.5089L100.793 13.3862H121.284ZM103.995 33.8772H110.825L111.743 28.7545H104.913L103.995 33.8772ZM140.928 13.3862L143.874 15.9475L142.081 26.1931L138.218 28.7545H127.972L126.158 39H119.327L121.142 28.7545L122.038 23.6317L122.935 18.5089L123.853 13.3862H140.928ZM128.869 23.6317H135.699L136.595 18.5089H129.765L128.869 23.6317ZM161.042 13.3862L163.347 39H156.517L156.047 33.8772H148.534L146.271 39H139.441L150.797 13.3862H161.042ZM150.818 28.7545H155.599L154.788 19.7896L150.818 28.7545ZM188.669 13.3862L184.144 39H177.314L179.576 26.1931L170.483 39H163.653L168.178 13.3862H175.008L172.746 26.1931L181.839 13.3862H188.669ZM184.891 5.70201L183.995 10.8248H173.749L174.646 5.70201H184.891ZM210 13.3862L209.103 18.5089H202.273L198.665 39H191.835L195.442 18.5089H188.612L189.508 13.3862H210Z" fill="white"/>
    <path d="M12.679 50.7528V62.1428H11.795V53.0308L7.851 58.6408H7.511L3.55 53.0308V62.1428H2.666V50.7528H3.006L7.681 57.4168L12.339 50.7528H12.679ZM19.4496 62.3128C18.679 62.3128 17.965 62.1258 17.3076 61.7518C16.6616 61.3665 16.1516 60.8452 15.7776 60.1878C15.4036 59.5305 15.2166 58.8108 15.2166 58.0288C15.2166 57.2355 15.4036 56.5158 15.7776 55.8698C16.1516 55.2125 16.6616 54.6968 17.3076 54.3228C17.965 53.9488 18.6846 53.7618 19.4666 53.7618C20.2486 53.7618 20.9626 53.9545 21.6086 54.3398C22.2546 54.7138 22.7646 55.2295 23.1386 55.8868C23.524 56.5328 23.7166 57.2468 23.7166 58.0288C23.7166 58.8108 23.524 59.5305 23.1386 60.1878C22.7646 60.8452 22.249 61.3665 21.5916 61.7518C20.9456 62.1258 20.2316 62.3128 19.4496 62.3128ZM19.4496 61.5138C20.073 61.5138 20.6396 61.3608 21.1496 61.0548C21.671 60.7488 22.079 60.3352 22.3736 59.8138C22.6796 59.2812 22.8326 58.6918 22.8326 58.0458C22.8326 57.3885 22.6796 56.7992 22.3736 56.2778C22.079 55.7452 21.6766 55.3258 21.1666 55.0198C20.6566 54.7138 20.09 54.5608 19.4666 54.5608C18.832 54.5608 18.2596 54.7138 17.7496 55.0198C17.2396 55.3258 16.8373 55.7452 16.5426 56.2778C16.248 56.7992 16.1006 57.3885 16.1006 58.0458C16.1006 58.6918 16.248 59.2812 16.5426 59.8138C16.8373 60.3352 17.2396 60.7488 17.7496 61.0548C18.2596 61.3608 18.8263 61.5138 19.4496 61.5138ZM28.0082 54.7138H24.9992V53.9318H31.8502V54.7138H28.8582V62.1428H28.0082V54.7138ZM37.4125 62.3128C36.6419 62.3128 35.9279 62.1258 35.2705 61.7518C34.6245 61.3665 34.1145 60.8452 33.7405 60.1878C33.3665 59.5305 33.1795 58.8108 33.1795 58.0288C33.1795 57.2355 33.3665 56.5158 33.7405 55.8698C34.1145 55.2125 34.6245 54.6968 35.2705 54.3228C35.9279 53.9488 36.6475 53.7618 37.4295 53.7618C38.2115 53.7618 38.9255 53.9545 39.5715 54.3398C40.2175 54.7138 40.7275 55.2295 41.1015 55.8868C41.4869 56.5328 41.6795 57.2468 41.6795 58.0288C41.6795 58.8108 41.4869 59.5305 41.1015 60.1878C40.7275 60.8452 40.2119 61.3665 39.5545 61.7518C38.9085 62.1258 38.1945 62.3128 37.4125 62.3128ZM37.4125 61.5138C38.0359 61.5138 38.6025 61.3608 39.1125 61.0548C39.6339 60.7488 40.0419 60.3352 40.3365 59.8138C40.6425 59.2812 40.7955 58.6918 40.7955 58.0458C40.7955 57.3885 40.6425 56.7992 40.3365 56.2778C40.0419 55.7452 39.6395 55.3258 39.1295 55.0198C38.6195 54.7138 38.0529 54.5608 37.4295 54.5608C36.7949 54.5608 36.2225 54.7138 35.7125 55.0198C35.2025 55.3258 34.8002 55.7452 34.5055 56.2778C34.2109 56.7992 34.0635 57.3885 34.0635 58.0458C34.0635 58.6918 34.2109 59.2812 34.5055 59.8138C34.8002 60.3352 35.2025 60.7488 35.7125 61.0548C36.2225 61.3608 36.7892 61.5138 37.4125 61.5138ZM48.0087 53.8808C48.7567 53.8808 49.4481 54.0678 50.0827 54.4418C50.7287 54.8158 51.2387 55.3258 51.6127 55.9718C51.9867 56.6178 52.1737 57.3262 52.1737 58.0968C52.1737 58.8675 51.9811 59.5758 51.5957 60.2218C51.2217 60.8678 50.7061 61.3778 50.0487 61.7518C49.4027 62.1258 48.6887 62.3128 47.9067 62.3128C47.1021 62.3128 46.3824 62.1258 45.7477 61.7518C45.1131 61.3665 44.6144 60.8338 44.2517 60.1538C43.8891 59.4738 43.7077 58.6918 43.7077 57.8078V56.0568C43.7077 54.8328 43.8494 53.8242 44.1327 53.0308C44.4161 52.2262 44.9034 51.5745 45.5947 51.0758C46.2974 50.5658 47.2721 50.2032 48.5187 49.9878C49.2667 49.8518 49.8674 49.7328 50.3207 49.6308C50.7854 49.5175 51.1594 49.3872 51.4427 49.2398V50.0728C51.1367 50.2315 50.7627 50.3618 50.3207 50.4638C49.8787 50.5658 49.3177 50.6735 48.6377 50.7868C47.4931 50.9682 46.6204 51.2742 46.0197 51.7048C45.4304 52.1355 45.0337 52.6795 44.8297 53.3368C44.6257 53.9828 44.5237 54.8158 44.5237 55.8358V56.0058C44.8751 55.3485 45.3567 54.8328 45.9687 54.4588C46.5807 54.0735 47.2607 53.8808 48.0087 53.8808ZM47.9237 61.5138C48.5471 61.5138 49.1137 61.3608 49.6237 61.0548C50.1451 60.7488 50.5531 60.3352 50.8477 59.8138C51.1424 59.2925 51.2897 58.7202 51.2897 58.0968C51.2897 57.4735 51.1424 56.9012 50.8477 56.3798C50.5531 55.8585 50.1451 55.4448 49.6237 55.1388C49.1137 54.8328 48.5471 54.6798 47.9237 54.6798C47.3117 54.6798 46.7507 54.8328 46.2407 55.1388C45.7307 55.4335 45.3284 55.8415 45.0337 56.3628C44.7391 56.8842 44.5917 57.4622 44.5917 58.0968C44.5917 58.7315 44.7391 59.3095 45.0337 59.8308C45.3284 60.3522 45.7307 60.7658 46.2407 61.0718C46.7507 61.3665 47.3117 61.5138 47.9237 61.5138ZM60.6429 53.9318V62.1428H59.7759V54.7138H56.2909L56.2399 55.9548C56.1719 57.5302 56.0529 58.7598 55.8829 59.6438C55.7242 60.5278 55.4749 61.1738 55.1349 61.5818C54.7949 61.9898 54.3302 62.1938 53.7409 62.1938C53.6502 62.1938 53.5369 62.1768 53.4009 62.1428V61.3948C53.4689 61.4062 53.5709 61.4118 53.7069 61.4118C54.1149 61.4118 54.4322 61.2078 54.6589 60.7998C54.8969 60.3805 55.0726 59.7855 55.1859 59.0148C55.2992 58.2328 55.3786 57.2015 55.4239 55.9208L55.4919 53.9318H60.6429ZM67.4116 62.3128C66.6409 62.3128 65.9269 62.1258 65.2696 61.7518C64.6236 61.3665 64.1136 60.8452 63.7396 60.1878C63.3656 59.5305 63.1786 58.8108 63.1786 58.0288C63.1786 57.2355 63.3656 56.5158 63.7396 55.8698C64.1136 55.2125 64.6236 54.6968 65.2696 54.3228C65.9269 53.9488 66.6466 53.7618 67.4286 53.7618C68.2106 53.7618 68.9246 53.9545 69.5706 54.3398C70.2166 54.7138 70.7266 55.2295 71.1006 55.8868C71.4859 56.5328 71.6786 57.2468 71.6786 58.0288C71.6786 58.8108 71.4859 59.5305 71.1006 60.1878C70.7266 60.8452 70.2109 61.3665 69.5536 61.7518C68.9076 62.1258 68.1936 62.3128 67.4116 62.3128ZM67.4116 61.5138C68.0349 61.5138 68.6016 61.3608 69.1116 61.0548C69.6329 60.7488 70.0409 60.3352 70.3356 59.8138C70.6416 59.2812 70.7946 58.6918 70.7946 58.0458C70.7946 57.3885 70.6416 56.7992 70.3356 56.2778C70.0409 55.7452 69.6386 55.3258 69.1286 55.0198C68.6186 54.7138 68.0519 54.5608 67.4286 54.5608C66.7939 54.5608 66.2216 54.7138 65.7116 55.0198C65.2016 55.3258 64.7992 55.7452 64.5046 56.2778C64.2099 56.7992 64.0626 57.3885 64.0626 58.0458C64.0626 58.6918 64.2099 59.2812 64.5046 59.8138C64.7992 60.3352 65.2016 60.7488 65.7116 61.0548C66.2216 61.3608 66.7882 61.5138 67.4116 61.5138ZM74.2167 53.9318H75.0667V62.1428H74.2167V53.9318ZM80.5577 62.1428H79.4527L75.3217 57.6888L79.0447 53.9318H80.1667L76.4437 57.6718L80.5577 62.1428ZM89.0103 53.7618V62.1428H88.1433V55.5128L82.9243 62.3128H82.5673V53.9318H83.4173V60.5958L88.6533 53.7618H89.0103ZM103.371 53.7618V62.1428H102.504V55.5128L97.2847 62.3128H96.9277V53.9318H97.7777V60.5958L103.014 53.7618H103.371ZM115.045 57.7568C115.555 57.9268 115.952 58.1988 116.235 58.5728C116.518 58.9468 116.66 59.3662 116.66 59.8308C116.66 60.5675 116.388 61.1682 115.844 61.6328C115.3 62.0862 114.569 62.3128 113.651 62.3128C112.314 62.3128 111.288 61.7745 110.574 60.6978L111.186 60.1878C111.458 60.5958 111.787 60.9188 112.172 61.1568C112.569 61.3948 113.062 61.5138 113.651 61.5138C114.331 61.5138 114.852 61.3552 115.215 61.0378C115.578 60.7205 115.759 60.3068 115.759 59.7968C115.759 59.3095 115.578 58.9185 115.215 58.6238C114.864 58.3292 114.337 58.1818 113.634 58.1818H112.546V57.3998H113.651C114.229 57.3998 114.66 57.2695 114.943 57.0088C115.226 56.7368 115.368 56.3855 115.368 55.9548C115.368 55.5242 115.215 55.1842 114.909 54.9348C114.603 54.6855 114.178 54.5608 113.634 54.5608C113.135 54.5608 112.716 54.6572 112.376 54.8498C112.036 55.0312 111.724 55.2975 111.441 55.6488L110.863 55.1388C111.52 54.2208 112.45 53.7618 113.651 53.7618C114.444 53.7618 115.073 53.9545 115.538 54.3398C116.003 54.7252 116.235 55.2465 116.235 55.9038C116.235 56.3118 116.133 56.6802 115.929 57.0088C115.725 57.3375 115.43 57.5868 115.045 57.7568ZM121.944 53.7618C122.874 53.7618 123.616 54.0395 124.171 54.5948C124.738 55.1502 125.021 55.9492 125.021 56.9918V62.1428H124.205V60.8508C123.911 61.3155 123.508 61.6782 122.998 61.9388C122.488 62.1882 121.91 62.3128 121.264 62.3128C120.471 62.3128 119.802 62.1202 119.258 61.7348C118.714 61.3382 118.442 60.7885 118.442 60.0858C118.442 59.4172 118.703 58.8845 119.224 58.4878C119.746 58.0912 120.437 57.8928 121.298 57.8928H124.154V56.9578C124.154 56.1758 123.95 55.5808 123.542 55.1728C123.134 54.7648 122.585 54.5608 121.893 54.5608C121.372 54.5608 120.913 54.6798 120.516 54.9178C120.12 55.1445 119.746 55.4845 119.394 55.9378L118.799 55.4618C119.593 54.3285 120.641 53.7618 121.944 53.7618ZM121.349 61.5648C121.848 61.5648 122.313 61.4572 122.743 61.2418C123.174 61.0265 123.514 60.7318 123.763 60.3578C124.024 59.9725 124.154 59.5475 124.154 59.0828V58.6238H121.383C120.715 58.6238 120.205 58.7485 119.853 58.9978C119.502 59.2358 119.326 59.5815 119.326 60.0348C119.326 60.5335 119.525 60.9132 119.921 61.1738C120.318 61.4345 120.794 61.5648 121.349 61.5648ZM128.056 53.9318H134.21V62.1428H133.343V54.7138H128.906V62.1428H128.056V53.9318ZM142.894 53.9318V62.1428H142.044V58.5388C141.772 58.6748 141.444 58.7825 141.058 58.8618C140.673 58.9298 140.276 58.9638 139.868 58.9638C138.905 58.9638 138.14 58.7032 137.573 58.1818C137.007 57.6492 136.723 56.8672 136.723 55.8358V53.9318H137.573V55.8018C137.573 57.3885 138.372 58.1818 139.97 58.1818C140.333 58.1818 140.701 58.1478 141.075 58.0798C141.461 58.0118 141.784 57.9098 142.044 57.7738V53.9318H142.894ZM148.806 53.7618C149.735 53.7618 150.477 54.0395 151.033 54.5948C151.599 55.1502 151.883 55.9492 151.883 56.9918V62.1428H151.067V60.8508C150.772 61.3155 150.37 61.6782 149.86 61.9388C149.35 62.1882 148.772 62.3128 148.126 62.3128C147.332 62.3128 146.664 62.1202 146.12 61.7348C145.576 61.3382 145.304 60.7885 145.304 60.0858C145.304 59.4172 145.564 58.8845 146.086 58.4878C146.607 58.0912 147.298 57.8928 148.16 57.8928H151.016V56.9578C151.016 56.1758 150.812 55.5808 150.404 55.1728C149.996 54.7648 149.446 54.5608 148.755 54.5608C148.233 54.5608 147.774 54.6798 147.378 54.9178C146.981 55.1445 146.607 55.4845 146.256 55.9378L145.661 55.4618C146.454 54.3285 147.502 53.7618 148.806 53.7618ZM148.211 61.5648C148.709 61.5648 149.174 61.4572 149.605 61.2418C150.035 61.0265 150.375 60.7318 150.625 60.3578C150.885 59.9725 151.016 59.5475 151.016 59.0828V58.6238H148.245C147.576 58.6238 147.066 58.7485 146.715 58.9978C146.363 59.2358 146.188 59.5815 146.188 60.0348C146.188 60.5335 146.386 60.9132 146.783 61.1738C147.179 61.4345 147.655 61.5648 148.211 61.5648ZM158.521 62.3128C157.75 62.3128 157.036 62.1258 156.379 61.7518C155.733 61.3665 155.223 60.8452 154.849 60.1878C154.475 59.5305 154.288 58.8108 154.288 58.0288C154.288 57.2468 154.475 56.5328 154.849 55.8868C155.223 55.2295 155.733 54.7138 156.379 54.3398C157.036 53.9545 157.756 53.7618 158.538 53.7618C159.229 53.7618 159.858 53.9148 160.425 54.2208C160.992 54.5155 161.468 54.9235 161.853 55.4448L161.241 55.9378C160.538 55.0198 159.637 54.5608 158.538 54.5608C157.903 54.5608 157.331 54.7138 156.821 55.0198C156.311 55.3258 155.909 55.7452 155.614 56.2778C155.319 56.8105 155.172 57.3942 155.172 58.0288C155.172 58.6748 155.319 59.2642 155.614 59.7968C155.909 60.3295 156.311 60.7488 156.821 61.0548C157.331 61.3608 157.898 61.5138 158.521 61.5138C159.62 61.5138 160.527 61.0548 161.241 60.1368L161.853 60.6298C161.468 61.1512 160.986 61.5648 160.408 61.8708C159.841 62.1655 159.212 62.3128 158.521 62.3128ZM166.15 54.7138H163.141V53.9318H169.992V54.7138H167V62.1428H166.15V54.7138ZM178.443 53.7618V62.1428H177.576V55.5128L172.357 62.3128H172V53.9318H172.85V60.5958L178.086 53.7618H178.443Z" fill="#707070"/>
</svg>
