<svg xmlns="http://www.w3.org/2000/svg" width="299" height="85" fill="none"><path d="M32.292 13.386L27.766 39h-6.83L23.2 26.193 14.106 39 9.538 26.193 7.275 39H.445L4.97 13.386h6.83l4.568 12.807 9.093-12.807h6.83zm20.05 0l2.966 2.562-3.607 20.49L47.837 39h-13.66l-2.967-2.561 3.607-20.492 3.864-2.56h13.66zM38.487 33.877h6.83L48.03 18.51H41.2l-2.712 15.368zm38.15-20.49l-.896 5.122h-6.83L65.304 39h-6.83l3.607-20.491h-6.83l.897-5.123h20.49zm18.62 0l2.967 2.56-3.607 20.492L90.754 39h-13.66l-2.967-2.561 3.607-20.492 3.863-2.56h13.661zm-13.853 20.49h6.83l2.711-15.368h-6.83l-2.71 15.368zm132.379 0L212.888 39h-6.83l.896-5.123h6.83zm21.651-20.49l2.946 2.56-1.793 10.246-3.864 2.561h-10.245L220.664 39h-6.83l1.814-10.245.897-5.123.896-5.123.918-5.123h17.076zm-12.06 10.245h6.83l.897-5.123h-6.83l-.897 5.123zm37.553-10.246l-1.815 10.246-.896 5.122-1.366 7.685L252.987 39h-17.076l.897-5.123.448-2.561h6.83l-.448 2.561h6.831l.917-5.123h-10.245l-2.967-2.56 2.262-12.808h6.831l-1.814 10.246h6.83l1.814-10.246h6.831z" fill="#FF0007"/><path d="M121.284 13.386l-.918 5.123-.448 2.561h-6.83l.448-2.561h-6.83l-.897 5.123h10.246l2.967 2.561-1.815 10.246L113.344 39H96.268l.897-5.123.917-5.123.897-5.122.896-5.123.918-5.123h20.491zm-17.289 20.491h6.83l.918-5.123h-6.83l-.918 5.123zm36.933-20.49l2.946 2.56-1.793 10.246-3.863 2.561h-10.246L126.158 39h-6.831l1.815-10.245.896-5.123.897-5.123.918-5.123h17.075zm-12.059 10.245h6.83l.896-5.123h-6.83l-.896 5.123zm32.173-10.246L163.347 39h-6.83l-.47-5.123h-7.513L146.271 39h-6.83l11.356-25.614h10.245zm-10.224 15.369h4.781l-.811-8.965-3.97 8.965zm37.851-15.369L184.144 39h-6.83l2.262-12.807L170.483 39h-6.83l4.525-25.614h6.83l-2.262 12.807 9.093-12.807h6.83zm-3.778-7.684l-.896 5.123h-10.246l.897-5.123h10.245zM210 13.386l-.897 5.123h-6.83L198.665 39h-6.83l3.607-20.491h-6.83l.896-5.123H210z" fill="#fff"/><path d="M12.679 50.753v11.39h-.884V53.03l-3.944 5.61h-.34L3.55 53.03v9.112h-.884v-11.39h.34l4.675 6.664 4.658-6.664h.34zm6.77 11.56c-.77 0-1.484-.187-2.141-.561a4.22 4.22 0 01-1.53-1.564 4.29 4.29 0 01-.561-2.16c0-.792.187-1.512.56-2.158a4.093 4.093 0 011.53-1.547 4.29 4.29 0 012.16-.561c.782 0 1.496.193 2.142.578.646.374 1.156.89 1.53 1.547.385.646.578 1.36.578 2.142 0 .782-.193 1.502-.578 2.159a4.18 4.18 0 01-1.547 1.564 4.198 4.198 0 01-2.142.56zm0-.8a3.24 3.24 0 001.7-.458c.522-.306.93-.72 1.225-1.241a3.486 3.486 0 00.459-1.768c0-.657-.153-1.247-.46-1.768a3.302 3.302 0 00-1.206-1.258 3.24 3.24 0 00-1.7-.46 3.273 3.273 0 00-2.924 1.718c-.295.521-.442 1.11-.442 1.768 0 .646.147 1.235.442 1.768.294.521.697.935 1.207 1.24a3.23 3.23 0 001.7.46zm8.56-6.8h-3.01v-.781h6.851v.782h-2.992v7.429h-.85v-7.43zm9.404 7.6a4.256 4.256 0 01-2.142-.561 4.22 4.22 0 01-1.53-1.564 4.29 4.29 0 01-.562-2.16c0-.792.188-1.512.561-2.158a4.093 4.093 0 011.53-1.547 4.29 4.29 0 012.16-.561c.782 0 1.495.193 2.142.578a4.11 4.11 0 011.53 1.547c.385.646.578 1.36.578 2.142 0 .782-.193 1.502-.578 2.159a4.18 4.18 0 01-1.547 1.564 4.198 4.198 0 01-2.142.56zm0-.8a3.24 3.24 0 001.7-.458c.52-.306.929-.72 1.224-1.241a3.486 3.486 0 00.458-1.768c0-.657-.153-1.247-.459-1.768a3.302 3.302 0 00-1.206-1.258 3.24 3.24 0 00-1.7-.46 3.273 3.273 0 00-2.925 1.718c-.294.521-.442 1.11-.442 1.768 0 .646.148 1.235.442 1.768.295.521.697.935 1.207 1.24.51.307 1.077.46 1.7.46zm10.596-7.632c.748 0 1.44.187 2.074.56a4.13 4.13 0 011.53 1.53 4.17 4.17 0 01.56 2.126c0 .77-.192 1.479-.577 2.125a4.092 4.092 0 01-1.547 1.53 4.198 4.198 0 01-2.142.56c-.805 0-1.525-.186-2.16-.56a4.069 4.069 0 01-1.495-1.598c-.363-.68-.544-1.462-.544-2.346v-1.751c0-1.224.141-2.233.425-3.026a3.992 3.992 0 011.462-1.955c.702-.51 1.677-.873 2.924-1.088a46.348 46.348 0 001.802-.357c.464-.114.838-.244 1.122-.391v.833c-.306.158-.68.289-1.122.39a28.34 28.34 0 01-1.683.324c-1.145.181-2.018.487-2.618.918-.59.43-.986.974-1.19 1.632-.204.646-.306 1.479-.306 2.499v.17a3.963 3.963 0 011.445-1.547 3.751 3.751 0 012.04-.578zm-.085 7.633a3.24 3.24 0 001.7-.46c.521-.305.93-.719 1.224-1.24a3.429 3.429 0 00.442-1.717 3.43 3.43 0 00-.442-1.717 3.298 3.298 0 00-1.224-1.241 3.24 3.24 0 00-1.7-.46 3.21 3.21 0 00-1.683.46c-.51.294-.913.703-1.207 1.224a3.463 3.463 0 00-.442 1.734c0 .634.147 1.212.442 1.734.294.521.697.935 1.207 1.24a3.29 3.29 0 001.683.443zm12.719-7.582v8.21h-.867v-7.428H56.29l-.051 1.24c-.068 1.576-.187 2.806-.357 3.69-.159.884-.408 1.53-.748 1.938-.34.408-.805.612-1.394.612-.09 0-.204-.017-.34-.051v-.748c.068.011.17.017.306.017.408 0 .725-.204.952-.612.238-.42.414-1.014.527-1.785.113-.782.193-1.813.238-3.094l.068-1.99h5.15zm6.769 8.38a4.255 4.255 0 01-2.142-.56 4.22 4.22 0 01-1.53-1.564 4.29 4.29 0 01-.561-2.16c0-.792.187-1.512.56-2.158a4.093 4.093 0 011.53-1.547 4.29 4.29 0 012.16-.561c.782 0 1.496.193 2.142.578.646.374 1.156.89 1.53 1.547.385.646.578 1.36.578 2.142 0 .782-.193 1.502-.578 2.159a4.18 4.18 0 01-1.547 1.564 4.198 4.198 0 01-2.142.56zm0-.798c.623 0 1.19-.153 1.7-.46.52-.305.929-.719 1.224-1.24a3.486 3.486 0 00.459-1.768c0-.657-.153-1.247-.46-1.768a3.303 3.303 0 00-1.206-1.258 3.241 3.241 0 00-1.7-.46 3.272 3.272 0 00-2.924 1.718c-.295.521-.442 1.11-.442 1.768 0 .646.147 1.235.442 1.768.294.521.697.935 1.207 1.24a3.24 3.24 0 001.7.46zm6.805-7.582h.85v8.21h-.85v-8.21zm6.34 8.21h-1.104l-4.131-4.453 3.723-3.757h1.122l-3.723 3.74 4.114 4.47zm8.453-8.38v8.38h-.867v-6.63l-5.219 6.8h-.357v-8.38h.85v6.664l5.236-6.834h.357zm14.361 0v8.38h-.867v-6.63l-5.22 6.8h-.356v-8.38h.85v6.664l5.236-6.834h.357zm11.674 3.995c.51.17.907.442 1.19.816.283.374.425.793.425 1.258 0 .736-.272 1.337-.816 1.802-.544.453-1.275.68-2.193.68-1.337 0-2.363-.538-3.077-1.615l.612-.51c.272.408.601.73.986.969.397.238.89.357 1.479.357.68 0 1.201-.159 1.564-.476.363-.317.544-.731.544-1.241 0-.487-.181-.878-.544-1.173-.351-.295-.878-.442-1.581-.442h-1.088V57.4h1.105c.578 0 1.009-.13 1.292-.391.283-.272.425-.623.425-1.054 0-.43-.153-.77-.459-1.02-.306-.25-.731-.374-1.275-.374-.499 0-.918.096-1.258.289a3.06 3.06 0 00-.935.799l-.578-.51c.657-.918 1.587-1.377 2.788-1.377.793 0 1.422.193 1.887.578.465.385.697.906.697 1.564 0 .408-.102.776-.306 1.105a1.921 1.921 0 01-.884.748zm6.899-3.995c.93 0 1.672.277 2.227.833.567.555.85 1.354.85 2.397v5.15h-.816v-1.291a3.027 3.027 0 01-1.207 1.088c-.51.25-1.088.374-1.734.374-.793 0-1.462-.193-2.006-.578-.544-.397-.816-.947-.816-1.65 0-.668.261-1.2.782-1.597.522-.397 1.213-.595 2.074-.595h2.856v-.935c0-.782-.204-1.377-.612-1.785-.408-.408-.957-.612-1.649-.612-.521 0-.98.119-1.377.357-.396.227-.77.566-1.122 1.02l-.595-.476c.794-1.134 1.842-1.7 3.145-1.7zm-.595 7.803a3.07 3.07 0 001.394-.323c.431-.215.771-.51 1.02-.884.261-.386.391-.81.391-1.275v-.46h-2.771c-.668 0-1.178.126-1.53.375-.351.238-.527.584-.527 1.037 0 .498.199.878.595 1.139.397.26.873.39 1.428.39zm6.707-7.633h6.154v8.21h-.867v-7.428h-4.437v7.429h-.85v-8.211zm14.838 0v8.21h-.85V58.54c-.272.136-.6.243-.986.323a6.833 6.833 0 01-1.19.102c-.963 0-1.728-.26-2.295-.782-.566-.533-.85-1.315-.85-2.346v-1.904h.85v1.87c0 1.587.799 2.38 2.397 2.38.363 0 .731-.034 1.105-.102a3.35 3.35 0 00.969-.306v-3.842h.85zm5.912-.17c.929 0 1.671.277 2.227.833.566.555.85 1.354.85 2.397v5.15h-.816v-1.291a3.033 3.033 0 01-1.207 1.088c-.51.25-1.088.374-1.734.374-.794 0-1.462-.193-2.006-.578-.544-.397-.816-.947-.816-1.65 0-.668.26-1.2.782-1.597.521-.397 1.212-.595 2.074-.595h2.856v-.935c0-.782-.204-1.377-.612-1.785-.408-.408-.958-.612-1.649-.612-.522 0-.981.119-1.377.357-.397.227-.771.566-1.122 1.02l-.595-.476c.793-1.134 1.841-1.7 3.145-1.7zm-.595 7.803c.498 0 .963-.108 1.394-.323.43-.215.77-.51 1.02-.884.26-.386.391-.81.391-1.275v-.46h-2.771c-.669 0-1.179.126-1.53.375-.352.238-.527.584-.527 1.037 0 .498.198.878.595 1.139.396.26.872.39 1.428.39zm10.31.748a4.256 4.256 0 01-2.142-.561 4.22 4.22 0 01-1.53-1.564 4.29 4.29 0 01-.561-2.16c0-.781.187-1.495.561-2.141a4.093 4.093 0 011.53-1.547 4.192 4.192 0 012.159-.578c.691 0 1.32.153 1.887.459a4.113 4.113 0 011.428 1.224l-.612.493c-.703-.918-1.604-1.377-2.703-1.377a3.272 3.272 0 00-2.924 1.717 3.554 3.554 0 00-.442 1.75c0 .647.147 1.236.442 1.769.295.533.697.952 1.207 1.258.51.306 1.077.459 1.7.459 1.099 0 2.006-.46 2.72-1.377l.612.493a4.237 4.237 0 01-1.445 1.24 4.03 4.03 0 01-1.887.443zm7.629-7.6h-3.009v-.781h6.851v.782H167v7.429h-.85v-7.43zm12.293-.951v8.38h-.867v-6.63l-5.219 6.8H172v-8.38h.85v6.664l5.236-6.834h.357z" fill="#707070"/></svg>