<svg xmlns="http://www.w3.org/2000/svg" width="246" height="70" fill="none"><path d="M26.77 10.906L23.043 32h-5.625l1.863-10.547L11.793 32 8.031 21.453 6.168 32H.543L4.27 10.906h5.625l3.761 10.547 7.489-10.547h5.625zm16.511 0l2.443 2.11-2.97 16.875L39.572 32h-11.25l-2.443-2.11 2.97-16.874 3.182-2.11h11.25zM31.873 27.781h5.625l2.232-12.656h-5.625l-2.232 12.656zM63.29 10.906l-.739 4.219h-5.625L53.957 32h-5.625l2.97-16.875h-5.625l.739-4.219H63.29zm15.333 0l2.444 2.11-2.971 16.875L74.915 32h-11.25l-2.443-2.11 2.97-16.874 3.182-2.11h11.25zM67.216 27.781h5.625l2.233-12.656h-5.626l-2.232 12.656zm109.018 0L175.496 32h-5.625l.738-4.219h5.625zm17.83-16.875l2.426 2.11-1.477 8.437-3.181 2.11h-8.438L181.9 32h-5.625l1.494-8.438.738-4.218.739-4.219.756-4.219h14.062zm-9.932 8.438h5.625l.739-4.219h-5.625l-.739 4.219zm30.926-8.438l-1.494 8.438-.738 4.218-1.125 6.329L208.519 32h-14.063l.739-4.219.369-2.11h5.625l-.369 2.11h5.625l.756-4.218h-8.438l-2.443-2.11 1.863-10.547h5.625l-1.494 8.438h5.625l1.494-8.438h5.625z" fill="#FF0007"/><path d="M100.058 10.906l-.756 4.219-.37 2.11h-5.624l.369-2.11h-5.625l-.739 4.219h8.438l2.443 2.11L96.7 29.89 93.52 32H79.456l.738-4.219.756-4.218.739-4.22.738-4.218.756-4.219h16.875zM85.819 27.781h5.625l.756-4.218h-5.625l-.756 4.218zm30.416-16.875l2.426 2.11-1.477 8.437-3.181 2.11h-8.438L104.071 32h-5.625l1.494-8.438.739-4.218.738-4.219.756-4.219h14.062zm-9.931 8.438h5.625l.738-4.219h-5.625l-.738 4.219zm26.495-8.438L134.698 32h-5.625l-.387-4.219h-6.187L120.635 32h-5.625l9.352-21.094h8.437zm-8.42 12.656h3.938l-.668-7.382-3.27 7.383zm31.172-12.656L151.825 32H146.2l1.863-10.547L140.575 32h-5.625l3.726-21.094h5.625l-1.863 10.547 7.488-10.547h5.625zm-3.111-6.328l-.739 4.219h-8.437l.738-4.219h8.438zm20.677 6.328l-.738 4.219h-5.625L163.783 32h-5.625l2.971-16.875h-5.625l.738-4.219h16.875z" fill="#333"/><path d="M10.618 41.62V51H9.89v-7.504l-3.248 4.62h-.28L3.1 43.496V51h-.728v-9.38h.28l3.85 5.488 3.836-5.488h.28zm5.576 9.52a3.507 3.507 0 01-1.764-.462 3.476 3.476 0 01-1.26-1.288 3.533 3.533 0 01-.462-1.778c0-.653.154-1.246.462-1.778a3.37 3.37 0 011.26-1.274 3.533 3.533 0 011.778-.462 3.38 3.38 0 011.764.476 3.37 3.37 0 011.26 1.274c.317.532.476 1.12.476 1.764 0 .644-.159 1.237-.476 1.778-.308.541-.733.97-1.274 1.288a3.457 3.457 0 01-1.764.462zm0-.658c.513 0 .98-.126 1.4-.378.43-.252.765-.593 1.008-1.022a2.87 2.87 0 00.378-1.456c0-.541-.126-1.027-.378-1.456a2.719 2.719 0 00-.994-1.036 2.669 2.669 0 00-1.4-.378A2.695 2.695 0 0013.8 46.17c-.243.43-.364.915-.364 1.456 0 .532.121 1.017.364 1.456.242.43.574.77.994 1.022.42.252.886.378 1.4.378zm7.048-5.6h-2.478v-.644h5.642v.644h-2.464V51h-.7v-6.118zm7.745 6.258a3.507 3.507 0 01-1.764-.462 3.476 3.476 0 01-1.26-1.288 3.533 3.533 0 01-.462-1.778c0-.653.154-1.246.462-1.778a3.37 3.37 0 011.26-1.274A3.533 3.533 0 0131 44.098a3.38 3.38 0 011.764.476 3.37 3.37 0 011.26 1.274 3.38 3.38 0 01.476 1.764c0 .644-.159 1.237-.476 1.778-.308.541-.733.97-1.274 1.288a3.457 3.457 0 01-1.764.462zm0-.658c.513 0 .98-.126 1.4-.378.43-.252.765-.593 1.008-1.022a2.87 2.87 0 00.378-1.456c0-.541-.126-1.027-.378-1.456a2.72 2.72 0 00-.994-1.036 2.67 2.67 0 00-1.4-.378 2.695 2.695 0 00-2.408 1.414c-.243.43-.364.915-.364 1.456 0 .532.121 1.017.364 1.456.242.43.574.77.994 1.022.42.252.887.378 1.4.378zm8.726-6.286c.616 0 1.185.154 1.708.462a3.4 3.4 0 011.26 1.26 3.43 3.43 0 01.462 1.75c0 .635-.159 1.218-.476 1.75a3.37 3.37 0 01-1.274 1.26 3.457 3.457 0 01-1.764.462c-.663 0-1.255-.154-1.778-.462a3.35 3.35 0 01-1.232-1.316c-.299-.56-.448-1.204-.448-1.932v-1.442c0-1.008.117-1.839.35-2.492.233-.663.635-1.2 1.204-1.61.579-.42 1.381-.719 2.408-.896.616-.112 1.11-.21 1.484-.294.383-.093.69-.2.924-.322v.686a3.97 3.97 0 01-.924.322c-.364.084-.826.173-1.386.266-.943.15-1.661.401-2.156.756a2.585 2.585 0 00-.98 1.344c-.168.532-.252 1.218-.252 2.058v.14a3.27 3.27 0 011.19-1.274 3.09 3.09 0 011.68-.476zm-.07 6.286c.513 0 .98-.126 1.4-.378.43-.252.765-.593 1.008-1.022.243-.43.364-.9.364-1.414a2.82 2.82 0 00-.364-1.414 2.717 2.717 0 00-1.008-1.022 2.67 2.67 0 00-1.4-.378c-.504 0-.966.126-1.386.378-.42.243-.751.579-.994 1.008a2.85 2.85 0 00-.364 1.428c0 .523.121.999.364 1.428.243.43.574.77.994 1.022.42.243.882.364 1.386.364zm10.475-6.244V51h-.714v-6.118h-2.87l-.042 1.022c-.056 1.297-.154 2.31-.294 3.038-.131.728-.336 1.26-.616 1.596-.28.336-.663.504-1.148.504-.075 0-.168-.014-.28-.042v-.616c.056.01.14.014.252.014.336 0 .597-.168.784-.504.196-.345.34-.835.434-1.47.093-.644.158-1.493.196-2.548l.056-1.638h4.242zm5.574 6.902a3.507 3.507 0 01-1.764-.462 3.476 3.476 0 01-1.26-1.288 3.533 3.533 0 01-.462-1.778c0-.653.154-1.246.462-1.778a3.37 3.37 0 011.26-1.274 3.533 3.533 0 011.778-.462 3.38 3.38 0 011.764.476 3.37 3.37 0 011.26 1.274 3.38 3.38 0 01.476 1.764c0 .644-.159 1.237-.476 1.778-.308.541-.733.97-1.274 1.288a3.457 3.457 0 01-1.764.462zm0-.658c.513 0 .98-.126 1.4-.378.43-.252.765-.593 1.008-1.022a2.87 2.87 0 00.378-1.456c0-.541-.126-1.027-.378-1.456a2.72 2.72 0 00-.994-1.036 2.67 2.67 0 00-1.4-.378 2.695 2.695 0 00-2.408 1.414c-.243.43-.364.915-.364 1.456 0 .532.121 1.017.364 1.456.242.43.574.77.994 1.022.42.252.886.378 1.4.378zm5.604-6.244h.7V51h-.7v-6.762zM66.518 51h-.91l-3.402-3.668 3.066-3.094h.924l-3.066 3.08L66.518 51zm6.961-6.902V51h-.714v-5.46l-4.298 5.6h-.294v-6.902h.7v5.488l4.312-5.628h.294zm11.826 0V51h-.714v-5.46l-4.298 5.6H80v-6.902h.7v5.488l4.312-5.628h.294zm9.614 3.29c.42.14.747.364.98.672.234.308.35.653.35 1.036 0 .607-.224 1.101-.672 1.484-.448.373-1.05.56-1.806.56-1.1 0-1.946-.443-2.534-1.33l.504-.42c.224.336.495.602.812.798.327.196.733.294 1.218.294.56 0 .99-.13 1.288-.392.3-.261.448-.602.448-1.022 0-.401-.149-.723-.448-.966-.289-.243-.723-.364-1.302-.364h-.896v-.644h.91c.476 0 .831-.107 1.064-.322.234-.224.35-.513.35-.868s-.126-.635-.378-.84c-.252-.205-.602-.308-1.05-.308-.41 0-.756.08-1.036.238-.28.15-.536.369-.77.658l-.476-.42c.542-.756 1.307-1.134 2.296-1.134.654 0 1.172.159 1.554.476.383.317.574.747.574 1.288 0 .336-.084.64-.252.91a1.58 1.58 0 01-.728.616zm5.682-3.29c.766 0 1.377.229 1.834.686.467.457.7 1.115.7 1.974V51h-.672v-1.064a2.492 2.492 0 01-.994.896 3.21 3.21 0 01-1.428.308c-.653 0-1.204-.159-1.652-.476-.448-.327-.672-.78-.672-1.358 0-.55.215-.99.644-1.316.43-.327.999-.49 1.708-.49h2.352v-.77c0-.644-.168-1.134-.504-1.47-.336-.336-.788-.504-1.358-.504a2.16 2.16 0 00-1.134.294c-.326.187-.634.467-.924.84l-.49-.392c.654-.933 1.517-1.4 2.59-1.4zm-.49 6.426c.411 0 .794-.089 1.148-.266.355-.177.635-.42.84-.728a1.83 1.83 0 00.322-1.05v-.378h-2.282c-.55 0-.97.103-1.26.308-.29.196-.434.48-.434.854 0 .41.164.723.49.938.327.215.719.322 1.176.322zm5.523-6.286h5.068V51h-.714v-6.118h-3.654V51h-.7v-6.762zm12.22 0V51h-.7v-2.968c-.224.112-.494.2-.812.266a5.627 5.627 0 01-.98.084c-.793 0-1.423-.215-1.89-.644-.466-.439-.7-1.083-.7-1.932v-1.568h.7v1.54c0 1.307.658 1.96 1.974 1.96.299 0 .602-.028.91-.084.318-.056.584-.14.798-.252v-3.164h.7zm4.868-.14c.766 0 1.377.229 1.834.686.467.457.7 1.115.7 1.974V51h-.672v-1.064a2.492 2.492 0 01-.994.896 3.21 3.21 0 01-1.428.308c-.653 0-1.204-.159-1.652-.476-.448-.327-.672-.78-.672-1.358 0-.55.215-.99.644-1.316.43-.327.999-.49 1.708-.49h2.352v-.77c0-.644-.168-1.134-.504-1.47-.336-.336-.788-.504-1.358-.504-.429 0-.807.098-1.134.294-.326.187-.634.467-.924.84l-.49-.392c.654-.933 1.517-1.4 2.59-1.4zm-.49 6.426c.411 0 .794-.089 1.148-.266.355-.177.635-.42.84-.728a1.83 1.83 0 00.322-1.05v-.378h-2.282c-.55 0-.97.103-1.26.308-.289.196-.434.48-.434.854 0 .41.164.723.49.938.327.215.719.322 1.176.322zm8.491.616a3.505 3.505 0 01-1.764-.462 3.476 3.476 0 01-1.26-1.288 3.533 3.533 0 01-.462-1.778c0-.644.154-1.232.462-1.764a3.37 3.37 0 011.26-1.274 3.452 3.452 0 011.778-.476 3.22 3.22 0 011.554.378c.467.243.859.579 1.176 1.008l-.504.406c-.579-.756-1.321-1.134-2.226-1.134a2.694 2.694 0 00-2.408 1.414c-.243.439-.364.92-.364 1.442 0 .532.121 1.017.364 1.456.243.439.574.784.994 1.036.42.252.887.378 1.4.378.905 0 1.652-.378 2.24-1.134l.504.406a3.49 3.49 0 01-1.19 1.022 3.319 3.319 0 01-1.554.364zm6.283-6.258h-2.478v-.644h5.642v.644h-2.464V51h-.7v-6.118zm10.123-.784V51h-.714v-5.46l-4.298 5.6h-.294v-6.902h.7v5.488l4.312-5.628h.294z" fill="#000"/></svg>